<svg width="24" height="31" xmlns="http://www.w3.org/2000/svg"><path d="M.757 24.313c-.444.13-.757.548-.757 1.017v3.81c0 .6.47 1.069 1.07 1.069h21.86c.6 0 1.07-.47 1.07-1.07V25.33c0-.47-.313-.887-.757-1.017-.365-4.096-2.921-7.54-6.47-9.209 3.549-1.67 6.105-5.113 6.47-9.208.444-.13.757-.548.757-1.018V1.07C24 .47 23.53 0 22.93 0H1.07C.47 0 0 .47 0 1.07v3.808c0 .47.313.887.757 1.018.365 4.095 2.921 7.539 6.47 9.208-3.575 1.67-6.105 5.113-6.47 9.209zM21.86 28.07H2.139V26.4h19.696v1.67h.026zM2.165 2.14h19.696v1.669H2.165v-1.67zm.757 3.808h18.182c-.521 4.539-4.408 8.087-9.104 8.087-4.696 0-8.53-3.548-9.078-8.087zm9.104 10.226c4.696 0 8.557 3.548 9.104 8.087H2.922c.548-4.54 4.408-8.087 9.104-8.087z" fill="#fff" fill-rule="nonzero"/></svg>